<?xml version="1.0" encoding="UTF-8" standalone="no"?>
<svg width="20px" height="22px" viewBox="0 0 20 22" version="1.1" xmlns="http://www.w3.org/2000/svg" xmlns:xlink="http://www.w3.org/1999/xlink">
    <!-- Generator: Sketch 41 (35326) - http://www.bohemiancoding.com/sketch -->
    <title></title>
    <desc>Created with Sketch.</desc>
    <defs></defs>
    <g id="Page-1" stroke="none" stroke-width="1" fill="none" fill-rule="evenodd">
        <g id="Desktop-HD-4.0" transform="translate(-1054.000000, -1268.000000)" fill="#2800A0">
            <g id="Main" transform="translate(0.000000, 318.000000)">
                <g id="Artikel" transform="translate(731.000000, 486.000000)">
                    <g id="Details" transform="translate(128.000000, 192.000000)">
                        <path d="M211.9375,276.1875 L211.9375,273.9375 C211.9375,273.515623 211.79297,273.160158 211.503906,272.871094 C211.214842,272.58203 210.859377,272.4375 210.4375,272.4375 C210.015623,272.4375 209.660158,272.58203 209.371094,272.871094 C209.08203,273.160158 208.9375,273.515623 208.9375,273.9375 L208.9375,276.1875 L201.4375,276.1875 L201.4375,273.9375 C201.4375,273.515623 201.29297,273.160158 201.003906,272.871094 C200.714842,272.58203 200.359377,272.4375 199.9375,272.4375 C199.515623,272.4375 199.160158,272.58203 198.871094,272.871094 C198.58203,273.160158 198.4375,273.515623 198.4375,273.9375 L198.4375,276.1875 L195.4375,276.1875 L195.4375,293.4375 L214.9375,293.4375 L214.9375,276.1875 L211.9375,276.1875 Z M209.054688,277.476562 C209.164063,277.757814 209.343749,277.98828 209.59375,278.167969 C209.843751,278.347657 210.124998,278.4375 210.4375,278.4375 C210.750002,278.4375 211.031249,278.347657 211.28125,278.167969 C211.531251,277.98828 211.710937,277.757814 211.820312,277.476562 C211.914063,277.617188 211.988281,277.76953 212.042969,277.933594 C212.097657,278.097657 212.125,278.265624 212.125,278.4375 C212.125,278.906252 211.960939,279.304686 211.632812,279.632812 C211.304686,279.960939 210.906252,280.125 210.4375,280.125 C209.968748,280.125 209.570314,279.960939 209.242188,279.632812 C208.914061,279.304686 208.75,278.906252 208.75,278.4375 C208.75,278.265624 208.777343,278.097657 208.832031,277.933594 C208.886719,277.76953 208.960937,277.617188 209.054688,277.476562 Z M198.554688,277.476562 C198.664063,277.757814 198.843749,277.98828 199.09375,278.167969 C199.343751,278.347657 199.624998,278.4375 199.9375,278.4375 C200.250002,278.4375 200.531249,278.347657 200.78125,278.167969 C201.031251,277.98828 201.210937,277.757814 201.320312,277.476562 C201.414063,277.617188 201.488281,277.76953 201.542969,277.933594 C201.597657,278.097657 201.625,278.265624 201.625,278.4375 C201.625,278.906252 201.460939,279.304686 201.132812,279.632812 C200.804686,279.960939 200.406252,280.125 199.9375,280.125 C199.468748,280.125 199.070314,279.960939 198.742188,279.632812 C198.414061,279.304686 198.25,278.906252 198.25,278.4375 C198.25,278.265624 198.277343,278.097657 198.332031,277.933594 C198.386719,277.76953 198.460937,277.617188 198.554688,277.476562 Z M212.6875,291.1875 L197.6875,291.1875 L197.6875,282.9375 L212.6875,282.9375 L212.6875,291.1875 Z" id=""></path>
                    </g>
                </g>
            </g>
        </g>
    </g>
</svg>