<?xml version="1.0" encoding="UTF-8" standalone="no"?>
<svg width="14px" height="20px" viewBox="0 0 14 20" version="1.1" xmlns="http://www.w3.org/2000/svg" xmlns:xlink="http://www.w3.org/1999/xlink">
    <!-- Generator: Sketch 41 (35326) - http://www.bohemiancoding.com/sketch -->
    <title></title>
    <desc>Created with Sketch.</desc>
    <defs></defs>
    <g id="Page-1" stroke="none" stroke-width="1" fill="none" fill-rule="evenodd">
        <g id="Desktop-HD-5.0---Home" transform="translate(-937.000000, -25.000000)" fill="#00D66C">
            <g id="Navbar">
                <path d="M946.5,25.875 L946.5,30.25 L950.875,30.25 L946.5,25.875 Z M945.25,25.875 L937.125,25.875 L937.125,44.625 L950.875,44.625 L950.875,31.5 L945.25,31.5 L945.25,25.875 Z M940.875,40.875 L939.625,40.875 L939.625,39.625 L940.875,39.625 L940.875,40.875 Z M940.875,38.375 L939.625,38.375 L939.625,37.125 L940.875,37.125 L940.875,38.375 Z M940.875,35.875 L939.625,35.875 L939.625,34.625 L940.875,34.625 L940.875,35.875 Z M948.375,40.875 L942.125,40.875 L942.125,39.625 L948.375,39.625 L948.375,40.875 Z M948.375,38.375 L942.125,38.375 L942.125,37.125 L948.375,37.125 L948.375,38.375 Z M948.375,34.625 L948.375,35.875 L942.125,35.875 L942.125,34.625 L948.375,34.625 Z" id=""></path>
            </g>
        </g>
    </g>
</svg>