<?xml version="1.0" encoding="utf-8"?>
<!-- Generator: Adobe Illustrator 18.0.0, SVG Export Plug-In . SVG Version: 6.00 Build 0)  -->
<!DOCTYPE svg PUBLIC "-//W3C//DTD SVG 1.1//EN" "http://www.w3.org/Graphics/SVG/1.1/DTD/svg11.dtd">
<svg version="1.1" id="Layer_1" xmlns="http://www.w3.org/2000/svg" xmlns:xlink="http://www.w3.org/1999/xlink" x="0px" y="0px"
	 viewBox="984.8 0 10 398" enable-background="new 984.8 0 10 398" xml:space="preserve">
<title>Combined Shape</title>
<desc>Created with Sketch.</desc>
<g id="Page-1" transform="translate(674.000000, 70.000000)">
	<g id="Wereldkaart" transform="translate(1020.000000, -139.000000)">
		<path id="Combined-Shape" fill="#8C13E2" d="M-706.6,461.6c-1.4,0-2.6,1.2-2.6,2.6c0,1.4,1.2,2.6,2.6,2.6c1.4,0,2.6-1.2,2.6-2.6
			C-704,462.8-705.2,461.6-706.6,461.6z M-706.6,451.6c-1.4,0-2.6,1.2-2.6,2.6c0,1.4,1.2,2.6,2.6,2.6c1.4,0,2.6-1.2,2.6-2.6
			C-704,452.8-705.2,451.6-706.6,451.6z M-706.6,441.4c-1.4,0-2.6,1.2-2.6,2.6s1.2,2.6,2.6,2.6c1.4,0,2.6-1.2,2.6-2.6
			S-705.2,441.4-706.6,441.4z M-706.6,431.4c-1.4,0-2.6,1.2-2.6,2.6s1.2,2.6,2.6,2.6c1.4,0,2.6-1.2,2.6-2.6
			S-705.2,431.4-706.6,431.4z M-706.6,421.4c-1.4,0-2.6,1.2-2.6,2.6s1.2,2.6,2.6,2.6c1.4,0,2.6-1.2,2.6-2.6
			S-705.2,421.4-706.6,421.4z M-706.6,411.4c-1.4,0-2.6,1.2-2.6,2.6s1.2,2.6,2.6,2.6c1.4,0,2.6-1.2,2.6-2.6
			S-705.2,411.4-706.6,411.4z M-706.6,401.2c-1.4,0-2.6,1.2-2.6,2.6c0,1.4,1.2,2.6,2.6,2.6c1.4,0,2.6-1.2,2.6-2.6
			C-704,402.4-705.2,401.2-706.6,401.2z M-706.6,391.2c-1.4,0-2.6,1.2-2.6,2.6c0,1.4,1.2,2.6,2.6,2.6c1.4,0,2.6-1.2,2.6-2.6
			C-704,392.4-705.2,391.2-706.6,391.2z M-706.6,381.2c-1.4,0-2.6,1.2-2.6,2.6c0,1.4,1.2,2.6,2.6,2.6c1.4,0,2.6-1.2,2.6-2.6
			C-704,382.4-705.2,381.2-706.6,381.2z M-706.6,371.2c-1.4,0-2.6,1.2-2.6,2.6c0,1.4,1.2,2.6,2.6,2.6c1.4,0,2.6-1.2,2.6-2.6
			C-704,372.4-705.2,371.2-706.6,371.2z M-706.6,361c-1.4,0-2.6,1.2-2.6,2.6s1.2,2.6,2.6,2.6c1.4,0,2.6-1.2,2.6-2.6
			S-705.2,361-706.6,361z M-706.6,351c-1.4,0-2.6,1.2-2.6,2.6s1.2,2.6,2.6,2.6c1.4,0,2.6-1.2,2.6-2.6S-705.2,351-706.6,351z
			 M-706.6,341c-1.4,0-2.6,1.2-2.6,2.6s1.2,2.6,2.6,2.6c1.4,0,2.6-1.2,2.6-2.6S-705.2,341-706.6,341z M-706.6,331
			c-1.4,0-2.6,1.2-2.6,2.6s1.2,2.6,2.6,2.6c1.4,0,2.6-1.2,2.6-2.6S-705.2,331-706.6,331z M-706.6,320.8c-1.4,0-2.6,1.2-2.6,2.6
			s1.2,2.6,2.6,2.6c1.4,0,2.6-1.2,2.6-2.6S-705.2,320.8-706.6,320.8z M-706.6,310.8c-1.4,0-2.6,1.2-2.6,2.6s1.2,2.6,2.6,2.6
			c1.4,0,2.6-1.2,2.6-2.6S-705.2,310.8-706.6,310.8z M-706.6,300.8c-1.4,0-2.6,1.2-2.6,2.6s1.2,2.6,2.6,2.6c1.4,0,2.6-1.2,2.6-2.6
			S-705.2,300.8-706.6,300.8z M-706.6,290.8c-1.4,0-2.6,1.2-2.6,2.6s1.2,2.6,2.6,2.6c1.4,0,2.6-1.2,2.6-2.6
			S-705.2,290.8-706.6,290.8z M-706.6,280.6c-1.4,0-2.6,1.2-2.6,2.6c0,1.4,1.2,2.6,2.6,2.6c1.4,0,2.6-1.2,2.6-2.6
			C-704,281.8-705.2,280.6-706.6,280.6z M-706.6,270.6c-1.4,0-2.6,1.2-2.6,2.6c0,1.4,1.2,2.6,2.6,2.6c1.4,0,2.6-1.2,2.6-2.6
			C-704,271.8-705.2,270.6-706.6,270.6z M-706.6,260.6c-1.4,0-2.6,1.2-2.6,2.6c0,1.4,1.2,2.6,2.6,2.6c1.4,0,2.6-1.2,2.6-2.6
			C-704,261.8-705.2,260.6-706.6,260.6z M-706.6,250.6c-1.4,0-2.6,1.2-2.6,2.6c0,1.4,1.2,2.6,2.6,2.6c1.4,0,2.6-1.2,2.6-2.6
			C-704,251.8-705.2,250.6-706.6,250.6z M-706.6,240.4c-1.4,0-2.6,1.2-2.6,2.6s1.2,2.6,2.6,2.6c1.4,0,2.6-1.2,2.6-2.6
			S-705.2,240.4-706.6,240.4z M-706.6,230.4c-1.4,0-2.6,1.2-2.6,2.6s1.2,2.6,2.6,2.6c1.4,0,2.6-1.2,2.6-2.6
			S-705.2,230.4-706.6,230.4z M-706.6,220.4c-1.4,0-2.6,1.2-2.6,2.6s1.2,2.6,2.6,2.6c1.4,0,2.6-1.2,2.6-2.6
			S-705.2,220.4-706.6,220.4z M-706.6,210.4c-1.4,0-2.6,1.2-2.6,2.6s1.2,2.6,2.6,2.6c1.4,0,2.6-1.2,2.6-2.6
			S-705.2,210.4-706.6,210.4z M-706.6,200.2c-1.4,0-2.6,1.2-2.6,2.6c0,1.4,1.2,2.6,2.6,2.6c1.4,0,2.6-1.2,2.6-2.6
			C-704,201.4-705.2,200.2-706.6,200.2z M-706.6,190.2c-1.4,0-2.6,1.2-2.6,2.6c0,1.4,1.2,2.6,2.6,2.6c1.4,0,2.6-1.2,2.6-2.6
			C-704,191.4-705.2,190.2-706.6,190.2z M-706.6,180.2c-1.4,0-2.6,1.2-2.6,2.6c0,1.4,1.2,2.6,2.6,2.6c1.4,0,2.6-1.2,2.6-2.6
			C-704,181.4-705.2,180.2-706.6,180.2z M-706.6,170.2c-1.4,0-2.6,1.2-2.6,2.6c0,1.4,1.2,2.6,2.6,2.6c1.4,0,2.6-1.2,2.6-2.6
			C-704,171.4-705.2,170.2-706.6,170.2z M-706.6,160c-1.4,0-2.6,1.2-2.6,2.6c0,1.4,1.2,2.6,2.6,2.6c1.4,0,2.6-1.2,2.6-2.6
			C-704,161.2-705.2,160-706.6,160z M-706.6,150c-1.4,0-2.6,1.2-2.6,2.6c0,1.4,1.2,2.6,2.6,2.6c1.4,0,2.6-1.2,2.6-2.6
			C-704,151.2-705.2,150-706.6,150z M-706.6,140c-1.4,0-2.6,1.2-2.6,2.6c0,1.4,1.2,2.6,2.6,2.6c1.4,0,2.6-1.2,2.6-2.6
			C-704,141.2-705.2,140-706.6,140z M-706.6,130c-1.4,0-2.6,1.2-2.6,2.6c0,1.4,1.2,2.6,2.6,2.6c1.4,0,2.6-1.2,2.6-2.6
			C-704,131.2-705.2,130-706.6,130z M-706.6,119.8c-1.4,0-2.6,1.2-2.6,2.6c0,1.4,1.2,2.6,2.6,2.6c1.4,0,2.6-1.2,2.6-2.6
			C-704,121-705.2,119.8-706.6,119.8z M-706.6,109.8c-1.4,0-2.6,1.2-2.6,2.6c0,1.4,1.2,2.6,2.6,2.6c1.4,0,2.6-1.2,2.6-2.6
			C-704,111-705.2,109.8-706.6,109.8z M-706.6,99.8c-1.4,0-2.6,1.2-2.6,2.6c0,1.4,1.2,2.6,2.6,2.6c1.4,0,2.6-1.2,2.6-2.6
			C-704,101-705.2,99.8-706.6,99.8z M-706.6,89.8c-1.4,0-2.6,1.2-2.6,2.6c0,1.4,1.2,2.6,2.6,2.6c1.4,0,2.6-1.2,2.6-2.6
			C-704,91-705.2,89.8-706.6,89.8z M-706.6,79.6c-1.4,0-2.6,1.2-2.6,2.6c0,1.4,1.2,2.6,2.6,2.6c1.4,0,2.6-1.2,2.6-2.6
			C-704,80.8-705.2,79.6-706.6,79.6z M-706.6,69.6c-1.4,0-2.6,1.2-2.6,2.6c0,1.4,1.2,2.6,2.6,2.6c1.4,0,2.6-1.2,2.6-2.6
			C-704,70.8-705.2,69.6-706.6,69.6z"/>
	</g>
</g>
</svg>
