<?xml version="1.0" encoding="UTF-8" standalone="no"?>
<svg width="25px" height="25px" viewBox="0 0 25 25" version="1.1" xmlns="http://www.w3.org/2000/svg" xmlns:xlink="http://www.w3.org/1999/xlink">
    <!-- Generator: Sketch 41 (35326) - http://www.bohemiancoding.com/sketch -->
    <title></title>
    <desc>Created with Sketch.</desc>
    <defs></defs>
    <g id="Page-1" stroke="none" stroke-width="1" fill="none" fill-rule="evenodd">
        <g id="Mobile-Portrait---Home" transform="translate(-282.000000, -12.000000)" fill="#00D66C">
            <g id="Navbar">
                <path d="M299.797852,27.6386719 C300.334964,26.8736941 300.758136,26.0314174 301.067383,25.1118164 C301.376629,24.1922155 301.53125,23.2278696 301.53125,22.21875 C301.53125,20.9166602 301.287112,19.7000382 300.798828,18.5688477 C300.310544,17.4376571 299.639164,16.4448285 298.784668,15.590332 C297.930172,14.7358356 296.937343,14.0644556 295.806152,13.5761719 C294.674962,13.0878882 293.45834,12.84375 292.15625,12.84375 C290.85416,12.84375 289.637538,13.0878882 288.506348,13.5761719 C287.375157,14.0644556 286.382328,14.7358356 285.527832,15.590332 C284.673336,16.4448285 284.001956,17.4376571 283.513672,18.5688477 C283.025388,19.7000382 282.78125,20.9166602 282.78125,22.21875 C282.78125,23.5208398 283.025388,24.7374618 283.513672,25.8686523 C284.001956,26.9998429 284.673336,27.9926715 285.527832,28.847168 C286.382328,29.7016644 287.375157,30.3730444 288.506348,30.8613281 C289.637538,31.3496118 290.85416,31.59375 292.15625,31.59375 C293.16537,31.59375 294.129715,31.4391292 295.049316,31.1298828 C295.968917,30.8206365 296.811194,30.3974636 297.576172,29.8603516 L304.338867,36.5986328 L306.536133,34.4013672 L299.797852,27.6386719 Z M292.15625,28.6152344 C291.277339,28.6152344 290.44727,28.4484066 289.666016,28.1147461 C288.884762,27.7810856 288.205244,27.325361 287.627441,26.7475586 C287.049639,26.1697562 286.593914,25.4902383 286.260254,24.7089844 C285.926593,23.9277305 285.759766,23.0976606 285.759766,22.21875 C285.759766,21.3398394 285.926593,20.5097695 286.260254,19.7285156 C286.593914,18.9472617 287.049639,18.2677438 287.627441,17.6899414 C288.205244,17.112139 288.884762,16.6564144 289.666016,16.3227539 C290.44727,15.9890934 291.277339,15.8222656 292.15625,15.8222656 C293.035161,15.8222656 293.86523,15.9890934 294.646484,16.3227539 C295.427738,16.6564144 296.107256,17.112139 296.685059,17.6899414 C297.262861,18.2677438 297.718586,18.9472617 298.052246,19.7285156 C298.385907,20.5097695 298.552734,21.3398394 298.552734,22.21875 C298.552734,23.0976606 298.385907,23.9277305 298.052246,24.7089844 C297.718586,25.4902383 297.262861,26.1697562 296.685059,26.7475586 C296.107256,27.325361 295.427738,27.7810856 294.646484,28.1147461 C293.86523,28.4484066 293.035161,28.6152344 292.15625,28.6152344 Z" id=""></path>
            </g>
        </g>
    </g>
</svg>