<?xml version="1.0" encoding="UTF-8" standalone="no"?>
<svg width="20px" height="26px" viewBox="0 0 20 26" version="1.1" xmlns="http://www.w3.org/2000/svg" xmlns:xlink="http://www.w3.org/1999/xlink">
    <!-- Generator: Sketch 41 (35326) - http://www.bohemiancoding.com/sketch -->
    <title>Combined Shape</title>
    <desc>Created with Sketch.</desc>
    <defs></defs>
    <g id="Page-1" stroke="none" stroke-width="1" fill="none" fill-rule="evenodd">
        <g id="Desktop-HD-5.0---Home" transform="translate(-687.000000, -972.000000)" fill="#FFFFFF">
            <g id="Main" transform="translate(0.000000, 819.000000)">
                <g id="Keuze-artikel-2" transform="translate(240.000000, 105.000000)">
                    <g id="Bookmark-2.0" transform="translate(430.000000, 37.000000)">
                        <path d="M25.1500272,14 L17,14 L17,37 L34,37 L34,22.8499728 C33.5153351,22.9483546 33.0136988,23 32.5,23 C30.5309185,23 28.7390703,22.2411745 27.4009315,21 L27,21 L27,20.5990685 C25.7588255,19.2609297 25,17.4690815 25,15.5 C25,14.9863012 25.0516454,14.4846649 25.1500272,14 Z M22,33 L20,33 L20,31 L22,31 L22,33 Z M22,30 L20,30 L20,28 L22,28 L22,30 Z M22,27 L20,27 L20,25 L22,25 L22,27 Z M31,33 L23,33 L23,31 L31,31 L31,33 Z M31,30 L23,30 L23,28 L31,28 L31,30 Z M31,25 L31,27 L23,27 L23,25 L31,25 Z M28,14.375 L28,16.625 L31.375,16.625 L31.375,20 L33.625,20 L33.625,16.625 L37,16.625 L37,14.375 L33.625,14.375 L33.625,11 L31.375,11 L31.375,14.375 L28,14.375 Z" id="Combined-Shape"></path>
                    </g>
                </g>
            </g>
        </g>
    </g>
</svg>