<?xml version="1.0" encoding="UTF-8" standalone="no"?>
<svg width="20px" height="19px" viewBox="0 0 20 19" version="1.1" xmlns="http://www.w3.org/2000/svg" xmlns:xlink="http://www.w3.org/1999/xlink">
    <!-- Generator: Sketch 41 (35326) - http://www.bohemiancoding.com/sketch -->
    <title></title>
    <desc>Created with Sketch.</desc>
    <defs></defs>
    <g id="Page-1" stroke="none" stroke-width="1" fill="none" fill-rule="evenodd">
        <g id="Desktop-HD-5.0---Home" transform="translate(-1098.000000, -25.000000)" fill="#00D66C">
            <g id="Navbar">
                <path d="M1117.21875,40.6601562 C1117.07552,40.1523412 1116.81185,39.7063821 1116.42773,39.3222656 C1116.04362,38.9381491 1115.59766,38.6744799 1115.08984,38.53125 L1111.37891,37.4570312 C1111.01432,37.8216164 1110.63347,38.1992168 1110.23633,38.5898438 C1109.83919,38.9804707 1109.47461,39.3417952 1109.14258,39.6738281 C1108.81055,40.005861 1108.53711,40.282551 1108.32227,40.5039062 C1108.10742,40.7252615 1108,40.8489582 1108,40.875 L1104.60156,37.4765625 L1100.91016,38.53125 C1100.38932,38.6744799 1099.94011,38.9381491 1099.5625,39.3222656 C1099.18489,39.7063821 1098.91797,40.1523412 1098.76172,40.6601562 L1098,43.375 L1118,43.375 L1117.21875,40.6601562 Z M1108,36.5 C1108.59896,36.5 1109.14909,36.3437516 1109.65039,36.03125 C1110.1517,35.7187484 1110.59114,35.2923204 1110.96875,34.7519531 C1111.34636,34.2115858 1111.6556,33.5800817 1111.89648,32.8574219 C1112.13737,32.134762 1112.29036,31.3632854 1112.35547,30.5429688 C1112.42057,29.7226521 1112.34245,28.9869824 1112.12109,28.3359375 C1111.89974,27.6848926 1111.58399,27.1315127 1111.17383,26.6757812 C1110.76367,26.2200498 1110.2819,25.8684908 1109.72852,25.6210938 C1109.17513,25.3736967 1108.59896,25.25 1108,25.25 C1107.40104,25.25 1106.82487,25.3736967 1106.27148,25.6210938 C1105.7181,25.8684908 1105.23633,26.2200498 1104.82617,26.6757812 C1104.41601,27.1315127 1104.10026,27.6848926 1103.87891,28.3359375 C1103.65755,28.9869824 1103.57943,29.7226521 1103.64453,30.5429688 C1103.70964,31.3632854 1103.86263,32.134762 1104.10352,32.8574219 C1104.3444,33.5800817 1104.65364,34.2115858 1105.03125,34.7519531 C1105.40886,35.2923204 1105.8483,35.7187484 1106.34961,36.03125 C1106.85091,36.3437516 1107.40104,36.5 1108,36.5 Z" id=""></path>
            </g>
        </g>
    </g>
</svg>