<?xml version="1.0" encoding="UTF-8" standalone="no"?>
<svg width="24px" height="23px" viewBox="0 0 24 23" version="1.1" xmlns="http://www.w3.org/2000/svg" xmlns:xlink="http://www.w3.org/1999/xlink">
    <!-- Generator: Sketch 41 (35326) - http://www.bohemiancoding.com/sketch -->
    <title></title>
    <desc>Created with Sketch.</desc>
    <defs></defs>
    <g id="Page-1" stroke="none" stroke-width="1" fill="none" fill-rule="evenodd">
        <g id="Desktop-HD-5.0---Home" transform="translate(-255.000000, -274.000000)" fill="#000000">
            <g id="Zoekbalk" transform="translate(0.000000, 70.000000)">
                <g transform="translate(240.000000, 190.000000)" id="">
                    <path d="M32.0859375,28.453125 C32.6015651,27.7187463 33.007811,26.9101607 33.3046875,26.0273438 C33.601564,25.1445268 33.75,24.2187548 33.75,23.25 C33.75,21.9999938 33.5156273,20.8320367 33.046875,19.7460938 C32.5781227,18.6601508 31.9335979,17.7070354 31.1132812,16.8867188 C30.2929646,16.0664021 29.3398492,15.4218773 28.2539062,14.953125 C27.1679633,14.4843727 26.0000062,14.25 24.75,14.25 C23.4999938,14.25 22.3320367,14.4843727 21.2460938,14.953125 C20.1601508,15.4218773 19.2070354,16.0664021 18.3867188,16.8867188 C17.5664021,17.7070354 16.9218773,18.6601508 16.453125,19.7460938 C15.9843727,20.8320367 15.75,21.9999938 15.75,23.25 C15.75,24.5000062 15.9843727,25.6679633 16.453125,26.7539062 C16.9218773,27.8398492 17.5664021,28.7929646 18.3867188,29.6132812 C19.2070354,30.4335979 20.1601508,31.0781227 21.2460938,31.546875 C22.3320367,32.0156273 23.4999938,32.25 24.75,32.25 C25.7187548,32.25 26.6445268,32.101564 27.5273438,31.8046875 C28.4101607,31.507811 29.2187463,31.1015651 29.953125,30.5859375 L36.4453125,37.0546875 L38.5546875,34.9453125 L32.0859375,28.453125 Z M24.75,29.390625 C23.9062458,29.390625 23.1093787,29.2304704 22.359375,28.9101562 C21.6093713,28.5898421 20.957034,28.1523465 20.4023438,27.5976562 C19.8476535,27.042966 19.4101579,26.3906287 19.0898438,25.640625 C18.7695296,24.8906213 18.609375,24.0937542 18.609375,23.25 C18.609375,22.4062458 18.7695296,21.6093788 19.0898438,20.859375 C19.4101579,20.1093712 19.8476535,19.457034 20.4023438,18.9023438 C20.957034,18.3476535 21.6093713,17.9101579 22.359375,17.5898438 C23.1093787,17.2695296 23.9062458,17.109375 24.75,17.109375 C25.5937542,17.109375 26.3906212,17.2695296 27.140625,17.5898438 C27.8906288,17.9101579 28.542966,18.3476535 29.0976562,18.9023438 C29.6523465,19.457034 30.0898421,20.1093712 30.4101562,20.859375 C30.7304704,21.6093788 30.890625,22.4062458 30.890625,23.25 C30.890625,24.0937542 30.7304704,24.8906213 30.4101562,25.640625 C30.0898421,26.3906287 29.6523465,27.042966 29.0976562,27.5976562 C28.542966,28.1523465 27.8906288,28.5898421 27.140625,28.9101562 C26.3906212,29.2304704 25.5937542,29.390625 24.75,29.390625 Z"></path>
                </g>
            </g>
        </g>
    </g>
</svg>