<?xml version="1.0" encoding="UTF-8" standalone="no"?>
<svg width="32px" height="32px" viewBox="0 0 32 32" version="1.1" xmlns="http://www.w3.org/2000/svg" xmlns:xlink="http://www.w3.org/1999/xlink">
    <!-- Generator: Sketch 41 (35326) - http://www.bohemiancoding.com/sketch -->
    <title>Group</title>
    <desc>Created with Sketch.</desc>
    <defs></defs>
    <g id="Page-1" stroke="none" stroke-width="1" fill="none" fill-rule="evenodd">
        <g id="Desktop-HD-4.0" transform="translate(-19.000000, -19.000000)">
            <g id="Navbar">
                <g id="Transavia-logo" transform="translate(19.000000, 19.000000)">
                    <g id="Group">
                        <path d="M31.1010909,15.8526061 C31.1010909,7.22909091 24.2763636,0.369454545 15.6518788,0.369454545 C7.02739394,0.369454545 0.203636364,7.23006061 0.203636364,15.8545455 C0.203636364,24.4770909 7.03030303,31.3309091 15.6528485,31.3309091 C24.2773333,31.3328485 31.1001212,24.4770909 31.1001212,15.8545455 L31.1030303,15.8526061 L31.1010909,15.8526061 Z" id="Shape" fill="#00D66C"></path>
                        <path d="M22.4775758,18.0867879 L21.6087273,18.0867879 C20.7398788,18.0867879 20.3694545,18.550303 20.2433939,19.4492121 C20.0242424,21.0947879 18.7229091,22.2089697 17.0162424,22.2089697 C15.0322424,22.2089697 13.7619394,20.7524848 13.7619394,18.6404848 L13.7619394,13.6795152 C13.7619394,13.4807273 13.7328485,13.3061818 13.6843636,13.1500606 C13.8705455,13.2344242 14.0935758,13.2780606 14.3495758,13.2780606 L18.9090909,13.2780606 C19.7798788,13.2780606 20.2744242,12.7806061 20.2744242,11.913697 L20.2744242,11.5112727 C20.2744242,10.6414545 19.7798788,10.1459394 18.9090909,10.1459394 L16.3374545,10.1459394 L16.3374545,7.35030303 C16.3374545,6.48339394 15.8390303,5.98593939 14.9721212,5.98593939 L14.3495758,5.98593939 C13.4826667,5.98593939 12.9861818,6.48436364 12.9861818,7.35030303 L12.9861818,11.9127273 C12.9861818,12.1086061 13.0113939,12.2841212 13.0637576,12.4412121 C12.8756364,12.3578182 12.6526061,12.3151515 12.3966061,12.3151515 L7.83709091,12.3151515 C6.96921212,12.3151515 6.47175758,12.8116364 6.47175758,13.6795152 L6.47175758,14.0838788 C6.47175758,14.9527273 6.96921212,15.4492121 7.83709091,15.4492121 L10.4126061,15.4492121 L10.4126061,18.6395152 C10.4126061,22.6414545 12.9871515,25.4341818 17.0201212,25.4341818 C20.7747879,25.4341818 23.2552727,23.0438788 23.7207273,19.4472727 C23.8429091,18.5473939 23.2533333,18.0858182 22.4766061,18.0858182 L22.4775758,18.0867879 Z" id="Shape" fill="#FFFFFF"></path>
                    </g>
                </g>
            </g>
        </g>
    </g>
</svg>