<?xml version="1.0" encoding="UTF-8" standalone="no"?>
<svg width="173px" height="32px" viewBox="0 0 173 32" version="1.1" xmlns="http://www.w3.org/2000/svg" xmlns:xlink="http://www.w3.org/1999/xlink">
    <!-- Generator: Sketch 41 (35326) - http://www.bohemiancoding.com/sketch -->
    <title>transavia_logo</title>
    <desc>Created with Sketch.</desc>
    <defs></defs>
    <g id="Page-1" stroke="none" stroke-width="1" fill="none" fill-rule="evenodd">
        <g id="transavia_logo">
            <g id="Page-1">
                <g id="Transavia-logo-Copy-2">
                    <path d="M52.2938182,24.0581818 L55.9204848,24.0581818 L55.9204848,16.1745455 C55.9204848,13.3236364 57.4758788,12.329697 59.3338182,12.329697 C60.4130909,12.329697 61.2130909,12.6516364 61.9481212,13.2780606 L63.5907879,10.3844848 C62.5968485,9.47587879 61.2770909,9.02690909 59.9835152,9.02690909 C58.2535758,9.02690909 56.5701818,9.82206061 55.7052121,11.3784242 L55.4666667,9.32848485 L52.2928485,9.32848485 L52.2928485,24.0610909 L52.2928485,24.0572121 L52.2938182,24.0581818 Z M154.620121,5.82787879 C154.620121,4.42375758 153.540848,3.70909091 152.457697,3.70909091 C151.400727,3.70909091 150.321455,4.41890909 150.321455,5.82690909 C150.321455,7.25236364 151.400727,7.94278788 152.457697,7.94278788 C153.53697,7.94278788 154.620121,7.25139394 154.620121,5.82593939 L154.620121,5.82787879 Z M45.6630303,5.09381818 L42.0315152,5.48169697 L42.0315152,9.32654545 L39.3115152,9.32654545 L39.3115152,12.4586667 L42.0315152,12.4586667 L42.0315152,19.0448485 C42.0315152,22.5861818 44.0630303,24.2298182 47.1078788,24.2298182 C48.4053333,24.2298182 49.5078788,23.926303 50.2836364,23.4928485 L49.312,20.5546667 C48.7941818,20.7932121 48.1464242,20.9687273 47.5393939,20.9687273 C46.3301818,20.9687273 45.6601212,20.2763636 45.6601212,18.8741818 L45.6601212,12.4606061 L49.7212121,12.4606061 L49.7212121,9.32848485 L45.6601212,9.32848485 L45.6620606,5.09478788 L45.6630303,5.09381818 Z M79.4036364,9.32751515 L76.1425455,9.32751515 L75.9030303,11.3803636 C75.081697,10.0189091 73.4613333,9.02593939 70.9352727,9.02593939 C66.8945455,9.02593939 63.3958788,11.5490909 63.3958788,16.6923636 C63.3958788,21.8356364 66.8945455,24.3587879 70.9352727,24.3587879 C73.4613333,24.3587879 75.081697,23.369697 75.9059394,22.0072727 L76.1425455,24.0610909 L79.4007273,24.0610909 L79.4007273,9.32848485 L79.4036364,9.32848485 L79.4036364,9.32751515 Z M150.644364,9.32751515 L150.644364,24.0572121 L154.274909,24.0572121 L154.274909,9.32848485 L150.644364,9.32848485 L150.644364,9.32751515 Z M71.4327273,21.2072727 C68.950303,21.2072727 67.0913939,19.5461818 67.0913939,16.694303 C67.0913939,13.8414545 68.9483636,12.1784242 71.4327273,12.1784242 C73.9180606,12.1784242 75.7769697,13.8385455 75.7769697,16.6933333 C75.7769697,19.5442424 73.92,21.2053333 71.4327273,21.2053333 L71.4327273,21.2072727 Z M130.708364,9.32848485 L127.445333,9.32848485 L127.204848,11.3813333 C126.385455,10.0198788 124.770909,9.02690909 122.24,9.02690909 C118.199273,9.02690909 114.701576,11.5500606 114.701576,16.6933333 C114.701576,21.8366061 118.200242,24.3597576 122.24,24.3597576 C124.765091,24.3597576 126.386424,23.3706667 127.204848,22.0082424 L127.447273,24.0620606 L130.708364,24.0620606 L130.708364,9.32848485 L130.708364,9.32848485 Z M122.735515,21.2072727 C120.253091,21.2072727 118.393212,19.5461818 118.393212,16.694303 C118.393212,13.8414545 120.250182,12.1784242 122.737455,12.1784242 C125.224727,12.1784242 127.081697,13.8385455 127.081697,16.6933333 C127.081697,19.5442424 125.222788,21.2053333 122.737455,21.2053333 L122.735515,21.2072727 Z M172.808727,9.32848485 L169.546667,9.32848485 L169.308121,11.3813333 C168.488727,10.0198788 166.869333,9.02690909 164.343273,9.02690909 C160.301576,9.02690909 156.802909,11.5500606 156.802909,16.6933333 C156.802909,21.8366061 160.303515,24.3597576 164.342303,24.3597576 C166.867394,24.3597576 168.488727,23.3706667 169.307152,22.0082424 L169.546667,24.0620606 L172.808727,24.0620606 L172.808727,9.32848485 L172.808727,9.32848485 Z M164.837818,21.2072727 C162.357333,21.2072727 160.495515,19.5461818 160.495515,16.694303 C160.495515,13.8414545 162.352485,12.1784242 164.839758,12.1784242 C167.324121,12.1784242 169.184,13.8385455 169.184,16.6933333 C169.181091,19.5442424 167.322182,21.2053333 164.839758,21.2053333 L164.837818,21.2072727 Z M142.590061,24.0581818 L148.875636,9.32848485 L145.096727,9.32848485 L140.795152,20.1910303 L136.491636,9.32848485 L132.475152,9.32848485 L138.758788,24.0581818 L142.59103,24.0581818 L142.590061,24.0581818 Z M82.8606061,24.0581818 L86.4901818,24.0581818 L86.4901818,16.1551515 C86.4901818,13.6707879 88.0882424,12.2647273 90.2041212,12.2647273 C92.3209697,12.2647273 93.7687273,13.6678788 93.7687273,16.1532121 L93.7687273,24.0581818 L97.398303,24.0581818 L97.398303,15.6150303 C97.398303,11.2300606 94.6734545,9.02884848 91.1961212,9.02884848 C88.8853333,9.02884848 87.1786667,10.0024242 86.3602424,11.3832727 L86.1226667,9.33042424 L82.8606061,9.33042424 L82.8606061,24.0649697 L82.8606061,24.0591515 L82.8606061,24.0581818 Z M106.556121,24.3587879 C111.115636,24.3587879 113.037576,22.2894545 113.037576,19.6751515 C113.037576,16.3684848 109.926788,15.5471515 107.420121,15.2242424 C105.975273,15.0273939 103.749818,14.9003636 103.749818,13.4729697 C103.749818,12.4130909 105.002667,11.9573333 106.558061,11.9573333 C107.961212,11.9573333 109.367273,12.3258182 110.511515,13.3178182 L112.347152,10.8974545 C110.730667,9.49430303 108.849455,9.01818182 106.730667,9.01818182 C103.579152,9.01818182 100.078545,10.0945455 100.078545,13.6368485 C100.078545,16.8979394 103.014788,17.7629091 105.69503,18.1071515 C107.224242,18.304 109.366303,18.4513939 109.366303,19.8593939 C109.366303,20.8921212 108.200727,21.3701818 106.68703,21.3701818 C104.978424,21.3701818 102.734545,20.745697 101.371152,19.3173333 L99.5364848,21.737697 C101.392485,23.7953939 104.181333,24.3558788 106.557091,24.3558788 L106.557091,24.3607273 L106.556121,24.3587879 Z" id="Shape" fill="#00D66C"></path>
                    <path d="M31.1010909,15.8526061 C31.1010909,7.22909091 24.2763636,0.369454545 15.6518788,0.369454545 C7.02739394,0.369454545 0.203636364,7.23006061 0.203636364,15.8545455 C0.203636364,24.4770909 7.03030303,31.3309091 15.6528485,31.3309091 C24.2773333,31.3328485 31.1001212,24.4770909 31.1001212,15.8545455 L31.1030303,15.8526061 L31.1010909,15.8526061 Z" id="Shape" fill="#00D66C"></path>
                    <path d="M22.4775758,18.0867879 L21.6087273,18.0867879 C20.7398788,18.0867879 20.3694545,18.550303 20.2433939,19.4492121 C20.0242424,21.0947879 18.7229091,22.2089697 17.0162424,22.2089697 C15.0322424,22.2089697 13.7619394,20.7524848 13.7619394,18.6404848 L13.7619394,13.6795152 C13.7619394,13.4807273 13.7328485,13.3061818 13.6843636,13.1500606 C13.8705455,13.2344242 14.0935758,13.2780606 14.3495758,13.2780606 L18.9090909,13.2780606 C19.7798788,13.2780606 20.2744242,12.7806061 20.2744242,11.913697 L20.2744242,11.5112727 C20.2744242,10.6414545 19.7798788,10.1459394 18.9090909,10.1459394 L16.3374545,10.1459394 L16.3374545,7.35030303 C16.3374545,6.48339394 15.8390303,5.98593939 14.9721212,5.98593939 L14.3495758,5.98593939 C13.4826667,5.98593939 12.9861818,6.48436364 12.9861818,7.35030303 L12.9861818,11.9127273 C12.9861818,12.1086061 13.0113939,12.2841212 13.0637576,12.4412121 C12.8756364,12.3578182 12.6526061,12.3151515 12.3966061,12.3151515 L7.83709091,12.3151515 C6.96921212,12.3151515 6.47175758,12.8116364 6.47175758,13.6795152 L6.47175758,14.0838788 C6.47175758,14.9527273 6.96921212,15.4492121 7.83709091,15.4492121 L10.4126061,15.4492121 L10.4126061,18.6395152 C10.4126061,22.6414545 12.9871515,25.4341818 17.0201212,25.4341818 C20.7747879,25.4341818 23.2552727,23.0438788 23.7207273,19.4472727 C23.8429091,18.5473939 23.2533333,18.0858182 22.4766061,18.0858182 L22.4775758,18.0867879 Z" id="Shape" fill="#FFFFFF"></path>
                </g>
            </g>
        </g>
    </g>
</svg>